<svg width="128" height="131" viewBox="0 0 128 131" fill="none" xmlns="http://www.w3.org/2000/svg">
<g clip-path="url(#clip0_80_2)">
<path d="M127.939 66.7254C127.939 61.3584 127.504 57.4419 126.561 53.3804H65.2751V77.6044H101.249C100.524 83.6244 96.6071 92.6904 87.9036 98.7824L87.7816 99.5934L107.159 114.605L108.502 114.739C120.831 103.352 127.939 86.5979 127.939 66.7254Z" fill="#4285F4"/>
<path d="M65.2751 130.55C82.8991 130.55 97.6946 124.748 108.502 114.739L87.9036 98.7826C82.3916 102.627 74.9936 105.31 65.2751 105.31C48.0136 105.31 33.3631 93.9236 28.1406 78.1851L27.3751 78.2501L7.22615 93.8436L6.96265 94.5761C17.6966 115.899 39.7451 130.55 65.2751 130.55Z" fill="#34A853"/>
<path d="M28.1405 78.185C26.7625 74.1235 25.965 69.7715 25.965 65.275C25.965 60.778 26.7625 56.4265 28.068 52.365L28.0315 51.5L7.63 35.656L6.9625 35.9735C2.5385 44.822 0 54.7585 0 65.275C0 75.7915 2.5385 85.7275 6.9625 94.576L28.1405 78.185Z" fill="#FBBC05"/>
<path d="M65.2751 25.2395C77.5321 25.2395 85.8001 30.534 90.5146 34.9585L108.937 16.9715C97.6226 6.455 82.8991 0 65.2751 0C39.7451 0 17.6966 14.6505 6.96265 35.9735L28.0681 52.365C33.3631 36.6265 48.0136 25.2395 65.2751 25.2395Z" fill="#EB4335"/>
</g>
<defs>
<clipPath id="clip0_80_2">
<rect width="128" height="131" fill="white"/>
</clipPath>
</defs>
</svg>
